<svg width="106" height="74" viewBox="0 0 106 74" fill="none" xmlns="http://www.w3.org/2000/svg">
<path d="M22.8053 35C22.8053 44.9411 30.8642 53 40.8053 53L67.8053 53C70.5667 53 72.8053 50.7614 72.8053 48L72.8053 14C72.8053 8.47715 68.3281 4 62.8053 4L27.8053 4C25.0439 4 22.8053 6.23858 22.8053 9L22.8053 35Z" fill="#FFF1DA"/>
<path d="M57.2073 48.6283C56.1925 48.2745 55.0952 48.1053 53.9838 48.1307C51.1086 48.164 48.7466 49.2935 48.7083 50.6531C48.6701 52.0127 50.9701 53.0872 53.8453 53.0539C54.956 53.0533 56.0633 52.8587 57.0989 52.4821C57.5882 52.2933 57.9115 51.8802 57.9235 51.4288L57.9732 49.6625C57.9873 49.2109 57.6865 48.8053 57.2073 48.6283Z" fill="#D5D6DB"/>
<path d="M63.0289 27.7115C62.2929 27.4551 61.4971 27.3325 60.6912 27.3509C58.6069 27.3751 56.8937 28.1937 56.8659 29.1788C56.8382 30.1638 58.5067 30.9432 60.5908 30.919C61.3963 30.9184 62.1993 30.777 62.9503 30.5039C63.3048 30.367 63.539 30.0677 63.5477 29.7404L63.5837 28.4615C63.594 28.1342 63.3763 27.84 63.0289 27.7115Z" fill="#D5D6DB"/>
<path d="M54.1638 23.2336C54.0299 23.1283 53.8528 23.0714 53.6671 23.0737L48.7711 23.1308C48.3619 23.135 48.0216 23.421 48.0111 23.77C48.0086 23.8499 48.024 23.9291 48.0565 24.0029L53.0018 35.3306L69.3274 35.1404L54.1638 23.2336Z" fill="#029BC5"/>
<path d="M91.6637 45.3538L47.3884 45.625L23.9025 41.4239L13.1127 37.3687L13.171 34.9172L86.5725 35.1073C88.7626 35.1088 90.8978 35.6008 92.762 36.534C93.5758 36.9468 94.3225 37.4461 94.9851 38.02C95.5756 38.5237 96.0757 39.0984 96.4702 39.727C96.9076 40.4333 98.0885 41.2168 98.0901 42.0837C98.0921 42.0835 97.2298 45.5237 91.6637 45.3538V45.3538Z" fill="#E1E6E9"/>
<path d="M49.4568 43.2355L22.0538 56.6364C21.6903 56.838 21.5779 57.2467 21.8026 57.5491C21.9405 57.7348 22.1818 57.8451 22.4438 57.8424L27.3297 57.7955C28.2695 57.7863 29.2039 57.6135 30.0752 57.2879L76.2778 42.4756L49.4568 43.2355Z" fill="#029BC5"/>
<path d="M15.1634 20.9236C14.9825 20.7024 14.6838 20.5734 14.3618 20.5771L10.3185 20.6231C9.76773 20.6291 9.31045 21.0145 9.29696 21.4838C9.29448 21.5731 9.30831 21.6616 9.33831 21.7461L13.4187 33.2886L25.2643 33.2578L15.1634 20.9236Z" fill="#029BC5"/>
<path d="M15.4117 36.1502L7.24254 39.556C7.12387 39.6042 7.07038 39.7239 7.12312 39.8233C7.16117 39.895 7.24639 39.9393 7.34001 39.936L11.1132 39.9017C11.1425 39.9015 11.1719 39.8966 11.1995 39.8873L22.4039 36.0896L15.4117 36.1502Z" fill="#029BC5"/>
<path d="M94.2987 37.9593C93.617 37.3674 92.8476 36.8536 92.0087 36.4296C90.5617 37.0315 89.3112 37.9406 88.382 39.0661C88.2165 39.3054 88.3052 39.6066 88.5801 39.739C88.6656 39.78 88.7627 39.8013 88.8624 39.8008L95.8254 39.7222C95.4206 39.0722 94.9066 38.4787 94.2987 37.9593Z" fill="#029BC5"/>
<path d="M79.7961 37.0491L84.3316 37.0148L84.161 44.0604L79.6255 44.0948L79.7961 37.0491Z" fill="#D5D6DB"/>
<path d="M76.4787 37.8174C75.9317 37.8223 75.4779 38.2028 75.4655 38.6675L75.4455 39.4202C75.4516 39.8843 75.9002 40.2438 76.4476 40.2232C76.9687 40.2035 77.3962 39.8449 77.4258 39.4025L77.4458 38.6497C77.4582 38.1855 77.0254 37.8129 76.4787 37.8174V37.8174Z" fill="#3A556A"/>
<path d="M72.4212 37.8174C71.8742 37.8223 71.4204 38.2028 71.408 38.6675L71.388 39.4202C71.3941 39.8843 71.8427 40.2438 72.3901 40.2232C72.9112 40.2035 73.3387 39.8449 73.3683 39.4025L73.3883 38.6497C73.4005 38.1855 72.9677 37.8129 72.4212 37.8174V37.8174Z" fill="#3A556A"/>
<path d="M68.3625 37.8174C67.8157 37.8229 67.3629 38.2032 67.3505 38.6674L67.3305 39.4202C67.3366 39.8843 67.7852 40.2438 68.3326 40.2232C68.8537 40.2035 69.2812 39.8449 69.3108 39.4025L69.3308 38.6497C69.3432 38.1851 68.9097 37.8125 68.3625 37.8174V37.8174Z" fill="#3A556A"/>
<path d="M64.3053 37.8174C63.7585 37.8229 63.3056 38.2032 63.2933 38.6675L63.2732 39.4202C63.2793 39.8843 63.7279 40.2438 64.2754 40.2232C64.7964 40.2035 65.224 39.8449 65.2535 39.4025L65.2736 38.6497C65.2857 38.1851 64.8523 37.8125 64.3053 37.8174V37.8174Z" fill="#3A556A"/>
<path d="M60.2482 37.8178C59.7011 37.8232 59.248 38.2037 59.2357 38.6681L59.2157 39.4213C59.2034 39.8855 59.6367 40.258 60.1835 40.2531C60.7303 40.2483 61.1836 39.868 61.1959 39.4037L61.2159 38.6506C61.229 38.1863 60.7961 37.8135 60.2493 37.8177C60.2489 37.8177 60.2486 37.8178 60.2482 37.8178Z" fill="#3A556A"/>
<path d="M56.1908 37.8178C55.6437 37.8232 55.1907 38.2037 55.1783 38.6681L55.1583 39.4213C55.146 39.8855 55.5793 40.258 56.1261 40.2531C56.673 40.2483 57.1262 39.868 57.1386 39.4037L57.1586 38.6506C57.1716 38.1863 56.7388 37.8135 56.192 37.8177C56.1915 37.8177 56.191 37.8178 56.1908 37.8178Z" fill="#3A556A"/>
<path d="M52.1332 37.8178C51.5861 37.8232 51.1331 38.2037 51.1207 38.6681L51.1007 39.4212C51.0891 39.8855 51.5231 40.2573 52.0697 40.2519C52.6154 40.2464 53.0677 39.8669 53.0807 39.4037L53.1007 38.6506C53.1132 38.1861 52.6802 37.8133 52.1332 37.8178Z" fill="#3A556A"/>
<path d="M48.0757 37.8177C47.5286 37.8232 47.0756 38.2037 47.0632 38.6681L47.0432 39.4213C47.0316 39.8855 47.4656 40.2573 48.0122 40.2519C48.5578 40.2465 49.0102 39.867 49.0232 39.4037L49.0432 38.6506C49.0558 38.1861 48.6227 37.8133 48.0757 37.8177Z" fill="#3A556A"/>
<path d="M44.0184 37.8178C43.4714 37.8232 43.0183 38.2037 43.006 38.6681L42.986 39.4212C42.9743 39.8855 43.4083 40.2573 43.9549 40.2519C44.5006 40.2464 44.9529 39.8669 44.9659 39.4037L44.9859 38.6506C44.9983 38.1861 44.5652 37.8133 44.0184 37.8178Z" fill="#3A556A"/>
<path d="M39.9597 37.8177C39.4129 37.8226 38.9596 38.2029 38.9473 38.6672L38.9472 38.6681L38.9272 39.4213C38.9156 39.8855 39.3496 40.2573 39.8962 40.2519C40.4419 40.2465 40.8942 39.867 40.9072 39.4037L40.9272 38.6506C40.9398 38.1861 40.5068 37.8133 39.9597 37.8177Z" fill="#3A556A"/>
<path d="M35.9034 37.8178C35.3566 37.8226 34.9033 38.2029 34.891 38.6672L34.891 38.6681L34.871 39.4212C34.8594 39.8855 35.2934 40.2573 35.84 40.2519C36.3857 40.2465 36.838 39.867 36.851 39.4037L36.871 38.6506C36.8833 38.1861 36.4503 37.8133 35.9034 37.8178Z" fill="#3A556A"/>
</svg>
